<?xml version="1.0" standalone="no"?>
<!DOCTYPE svg PUBLIC "-//W3C//DTD SVG 20010904//EN"
 "http://www.w3.org/TR/2001/REC-SVG-20010904/DTD/svg10.dtd">
<svg version="1.0" xmlns="http://www.w3.org/2000/svg"
 width="400.000000pt" height="400.000000pt" viewBox="0 0 400.000000 400.000000"
 preserveAspectRatio="xMidYMid meet">
<metadata>
Created by potrace 1.14, written by Peter Selinger 2001-2017
</metadata>
<g transform="translate(0.000000,400.000000) scale(0.100000,-0.100000)"
fill="#000000" stroke="none">
<path d="M1940 3506 c-36 -13 -87 -33 -115 -46 -50 -23 -206 -116 -215 -129
-3 -4 -21 -18 -40 -31 -53 -37 -96 -76 -200 -181 -177 -177 -282 -315 -466
-604 -134 -213 -239 -477 -284 -720 -5 -27 -12 -63 -16 -80 -3 -16 -8 -111
-10 -210 -3 -146 0 -199 16 -283 60 -325 203 -543 421 -640 162 -73 356 -64
559 24 106 46 130 58 130 67 0 4 5 7 11 7 29 0 226 155 327 257 58 59 184 207
215 253 76 112 114 170 131 200 11 19 30 53 42 75 76 133 177 372 218 516 14
48 14 52 0 32 -9 -12 -23 -31 -32 -41 -10 -11 -39 -45 -67 -77 -27 -32 -93
-100 -145 -151 -352 -345 -717 -505 -974 -428 -33 10 -65 22 -71 27 -5 4 -29
21 -52 38 -55 39 -106 118 -139 215 -24 70 -28 95 -30 229 -2 144 8 220 50
396 10 41 58 186 77 233 42 101 52 123 109 236 134 269 319 526 530 738 51 51
91 95 89 97 -2 1 -33 -7 -69 -19z"/>
<path d="M2778 3525 c-2 -2 -16 -5 -33 -8 -423 -69 -905 -534 -1159 -1117 -16
-36 -34 -78 -41 -95 -12 -27 -80 -218 -91 -255 -4 -16 24 13 96 99 98 116 235
247 362 344 384 296 741 353 934 149 46 -48 99 -159 118 -245 14 -65 15 -286
2 -357 -2 -14 -7 -41 -11 -60 -19 -110 -81 -316 -121 -408 -111 -257 -226
-456 -379 -657 -83 -110 -176 -215 -274 -312 l-74 -72 39 10 c21 5 57 17 79
26 187 73 332 174 525 363 236 231 493 603 627 905 58 133 120 340 138 460 3
23 8 52 11 65 13 55 12 376 -2 453 -26 150 -54 239 -111 352 -87 171 -230 297
-388 341 -51 14 -237 28 -247 19z"/>
</g>
</svg>
